ISO-10303-21;
HEADER;
/* Generated by software containing ST-Developer
 * from STEP Tools, Inc. (www.steptools.com) 
 */
/* OPTION: using custom renumber hook */

FILE_DESCRIPTION(
/* description */ ('STEP AP242 Edition 2',
'CAx-IF Rec.Pracs.---Representation and Presentation of Product Manufa
cturing Information (PMI)---4.0---2014-10-13',
'CAx-IF Rec.Pracs.---3D Tessellated Geometry---0.4---2014-09-14','2;1',
'CAx-IF Rec.Pracs.---User Defined Attributes---1.5---2016-08-15'),
/* implementation_level */ '2;1');

FILE_NAME(
/* name */ 'INDX_Dock_2020_Print_Ready - [a]_spring_lid_1x',
/* time_stamp */ '2026-07-20T11:41:48Z',
/* author */ (''),
/* organization */ (''),
/* preprocessor_version */ 'ST-DEVELOPER v20',
/* originating_system */ 'ONSHAPE BY PTC INC, 1.218',
/* authorisation */ '  ');

FILE_SCHEMA (('AP242_MANAGED_MODEL_BASED_3D_ENGINEERING_MIM_LF { 1 0 10303 442 3 1 4 }'));
ENDSEC;

DATA;
#10=SHAPE_REPRESENTATION_RELATIONSHIP('','',#517,#11);
#11=ADVANCED_BREP_SHAPE_REPRESENTATION('',(#515),#855);
#12=B_SPLINE_CURVE_WITH_KNOTS('',3,(#841,#842,#843,#844),.UNSPECIFIED.,
 .F.,.F.,(4,4),(33.5573097630418,53.1301023557382),.UNSPECIFIED.);
#13=B_SPLINE_CURVE_WITH_KNOTS('',3,(#845,#846,#847,#848),.UNSPECIFIED.,
 .F.,.F.,(4,4),(306.869897644999,326.442690237476),.UNSPECIFIED.);
#14=PLANE('',#525);
#15=PLANE('',#526);
#16=PLANE('',#527);
#17=PLANE('',#528);
#18=PLANE('',#529);
#19=PLANE('',#530);
#20=PLANE('',#531);
#21=PLANE('',#535);
#22=PLANE('',#536);
#23=PLANE('',#537);
#24=PLANE('',#538);
#25=PLANE('',#542);
#26=PLANE('',#543);
#27=PLANE('',#544);
#28=PLANE('',#545);
#29=PLANE('',#549);
#30=PLANE('',#552);
#31=PLANE('',#555);
#32=PLANE('',#556);
#33=LINE('',#706,#87);
#34=LINE('',#710,#88);
#35=LINE('',#715,#89);
#36=LINE('',#719,#90);
#37=LINE('',#721,#91);
#38=LINE('',#724,#92);
#39=LINE('',#726,#93);
#40=LINE('',#728,#94);
#41=LINE('',#730,#95);
#42=LINE('',#732,#96);
#43=LINE('',#734,#97);
#44=LINE('',#736,#98);
#45=LINE('',#738,#99);
#46=LINE('',#740,#100);
#47=LINE('',#742,#101);
#48=LINE('',#745,#102);
#49=LINE('',#747,#103);
#50=LINE('',#749,#104);
#51=LINE('',#751,#105);
#52=LINE('',#754,#106);
#53=LINE('',#756,#107);
#54=LINE('',#758,#108);
#55=LINE('',#760,#109);
#56=LINE('',#762,#110);
#57=LINE('',#764,#111);
#58=LINE('',#766,#112);
#59=LINE('',#768,#113);
#60=LINE('',#770,#114);
#61=LINE('',#774,#115);
#62=LINE('',#778,#116);
#63=LINE('',#780,#117);
#64=LINE('',#782,#118);
#65=LINE('',#784,#119);
#66=LINE('',#786,#120);
#67=LINE('',#788,#121);
#68=LINE('',#790,#122);
#69=LINE('',#791,#123);
#70=LINE('',#793,#124);
#71=LINE('',#795,#125);
#72=LINE('',#797,#126);
#73=LINE('',#801,#127);
#74=LINE('',#805,#128);
#75=LINE('',#806,#129);
#76=LINE('',#808,#130);
#77=LINE('',#810,#131);
#78=LINE('',#812,#132);
#79=LINE('',#814,#133);
#80=LINE('',#816,#134);
#81=LINE('',#818,#135);
#82=LINE('',#820,#136);
#83=LINE('',#822,#137);
#84=LINE('',#824,#138);
#85=LINE('',#832,#139);
#86=LINE('',#838,#140);
#87=VECTOR('',#567,1.);
#88=VECTOR('',#570,1.);
#89=VECTOR('',#575,1.);
#90=VECTOR('',#578,1.);
#91=VECTOR('',#581,1.);
#92=VECTOR('',#582,1.);
#93=VECTOR('',#583,1.);
#94=VECTOR('',#584,1.);
#95=VECTOR('',#587,1.);
#96=VECTOR('',#588,1.);
#97=VECTOR('',#589,1.);
#98=VECTOR('',#592,1.);
#99=VECTOR('',#593,1.);
#100=VECTOR('',#594,1.);
#101=VECTOR('',#597,1.);
#102=VECTOR('',#598,1.);
#103=VECTOR('',#599,1.);
#104=VECTOR('',#600,1.);
#105=VECTOR('',#603,1.);
#106=VECTOR('',#604,1.);
#107=VECTOR('',#605,1.);
#108=VECTOR('',#606,1.);
#109=VECTOR('',#609,1.);
#110=VECTOR('',#610,1.);
#111=VECTOR('',#611,1.);
#112=VECTOR('',#614,1.);
#113=VECTOR('',#615,1.);
#114=VECTOR('',#616,1.);
#115=VECTOR('',#621,1.);
#116=VECTOR('',#626,1.);
#117=VECTOR('',#627,1.);
#118=VECTOR('',#628,1.);
#119=VECTOR('',#631,1.);
#120=VECTOR('',#632,1.);
#121=VECTOR('',#633,1.);
#122=VECTOR('',#636,1.);
#123=VECTOR('',#637,1.);
#124=VECTOR('',#640,1.);
#125=VECTOR('',#641,1.);
#126=VECTOR('',#642,1.);
#127=VECTOR('',#647,1.);
#128=VECTOR('',#652,1.);
#129=VECTOR('',#653,1.);
#130=VECTOR('',#656,1.);
#131=VECTOR('',#657,1.);
#132=VECTOR('',#658,1.);
#133=VECTOR('',#661,1.);
#134=VECTOR('',#662,1.);
#135=VECTOR('',#663,1.);
#136=VECTOR('',#666,1.);
#137=VECTOR('',#667,1.);
#138=VECTOR('',#668,1.);
#139=VECTOR('',#683,1.);
#140=VECTOR('',#690,1.);
#141=ORIENTED_EDGE('',*,*,#285,.T.);
#142=ORIENTED_EDGE('',*,*,#286,.T.);
#143=ORIENTED_EDGE('',*,*,#287,.F.);
#144=ORIENTED_EDGE('',*,*,#288,.F.);
#145=ORIENTED_EDGE('',*,*,#289,.T.);
#146=ORIENTED_EDGE('',*,*,#290,.T.);
#147=ORIENTED_EDGE('',*,*,#291,.F.);
#148=ORIENTED_EDGE('',*,*,#292,.F.);
#149=ORIENTED_EDGE('',*,*,#293,.T.);
#150=ORIENTED_EDGE('',*,*,#294,.F.);
#151=ORIENTED_EDGE('',*,*,#295,.F.);
#152=ORIENTED_EDGE('',*,*,#296,.T.);
#153=ORIENTED_EDGE('',*,*,#297,.T.);
#154=ORIENTED_EDGE('',*,*,#298,.F.);
#155=ORIENTED_EDGE('',*,*,#299,.F.);
#156=ORIENTED_EDGE('',*,*,#294,.T.);
#157=ORIENTED_EDGE('',*,*,#300,.T.);
#158=ORIENTED_EDGE('',*,*,#301,.T.);
#159=ORIENTED_EDGE('',*,*,#302,.F.);
#160=ORIENTED_EDGE('',*,*,#298,.T.);
#161=ORIENTED_EDGE('',*,*,#303,.F.);
#162=ORIENTED_EDGE('',*,*,#304,.T.);
#163=ORIENTED_EDGE('',*,*,#305,.T.);
#164=ORIENTED_EDGE('',*,*,#306,.T.);
#165=ORIENTED_EDGE('',*,*,#307,.F.);
#166=ORIENTED_EDGE('',*,*,#308,.T.);
#167=ORIENTED_EDGE('',*,*,#309,.T.);
#168=ORIENTED_EDGE('',*,*,#310,.F.);
#169=ORIENTED_EDGE('',*,*,#311,.T.);
#170=ORIENTED_EDGE('',*,*,#312,.F.);
#171=ORIENTED_EDGE('',*,*,#313,.F.);
#172=ORIENTED_EDGE('',*,*,#310,.T.);
#173=ORIENTED_EDGE('',*,*,#314,.T.);
#174=ORIENTED_EDGE('',*,*,#315,.F.);
#175=ORIENTED_EDGE('',*,*,#316,.F.);
#176=ORIENTED_EDGE('',*,*,#312,.T.);
#177=ORIENTED_EDGE('',*,*,#317,.T.);
#178=ORIENTED_EDGE('',*,*,#318,.F.);
#179=ORIENTED_EDGE('',*,*,#319,.F.);
#180=ORIENTED_EDGE('',*,*,#315,.T.);
#181=ORIENTED_EDGE('',*,*,#320,.T.);
#182=ORIENTED_EDGE('',*,*,#321,.F.);
#183=ORIENTED_EDGE('',*,*,#322,.F.);
#184=ORIENTED_EDGE('',*,*,#318,.T.);
#185=ORIENTED_EDGE('',*,*,#323,.T.);
#186=ORIENTED_EDGE('',*,*,#324,.F.);
#187=ORIENTED_EDGE('',*,*,#325,.F.);
#188=ORIENTED_EDGE('',*,*,#321,.T.);
#189=ORIENTED_EDGE('',*,*,#326,.T.);
#190=ORIENTED_EDGE('',*,*,#290,.F.);
#191=ORIENTED_EDGE('',*,*,#327,.F.);
#192=ORIENTED_EDGE('',*,*,#324,.T.);
#193=ORIENTED_EDGE('',*,*,#328,.T.);
#194=ORIENTED_EDGE('',*,*,#329,.F.);
#195=ORIENTED_EDGE('',*,*,#330,.F.);
#196=ORIENTED_EDGE('',*,*,#292,.T.);
#197=ORIENTED_EDGE('',*,*,#331,.T.);
#198=ORIENTED_EDGE('',*,*,#332,.F.);
#199=ORIENTED_EDGE('',*,*,#333,.F.);
#200=ORIENTED_EDGE('',*,*,#329,.T.);
#201=ORIENTED_EDGE('',*,*,#334,.T.);
#202=ORIENTED_EDGE('',*,*,#286,.F.);
#203=ORIENTED_EDGE('',*,*,#335,.F.);
#204=ORIENTED_EDGE('',*,*,#332,.T.);
#205=ORIENTED_EDGE('',*,*,#336,.T.);
#206=ORIENTED_EDGE('',*,*,#337,.F.);
#207=ORIENTED_EDGE('',*,*,#338,.F.);
#208=ORIENTED_EDGE('',*,*,#288,.T.);
#209=ORIENTED_EDGE('',*,*,#339,.T.);
#210=ORIENTED_EDGE('',*,*,#340,.F.);
#211=ORIENTED_EDGE('',*,*,#341,.F.);
#212=ORIENTED_EDGE('',*,*,#337,.T.);
#213=ORIENTED_EDGE('',*,*,#342,.T.);
#214=ORIENTED_EDGE('',*,*,#343,.F.);
#215=ORIENTED_EDGE('',*,*,#344,.F.);
#216=ORIENTED_EDGE('',*,*,#340,.T.);
#217=ORIENTED_EDGE('',*,*,#345,.T.);
#218=ORIENTED_EDGE('',*,*,#296,.F.);
#219=ORIENTED_EDGE('',*,*,#346,.F.);
#220=ORIENTED_EDGE('',*,*,#343,.T.);
#221=ORIENTED_EDGE('',*,*,#302,.T.);
#222=ORIENTED_EDGE('',*,*,#347,.T.);
#223=ORIENTED_EDGE('',*,*,#303,.T.);
#224=ORIENTED_EDGE('',*,*,#348,.T.);
#225=ORIENTED_EDGE('',*,*,#307,.T.);
#226=ORIENTED_EDGE('',*,*,#313,.T.);
#227=ORIENTED_EDGE('',*,*,#316,.T.);
#228=ORIENTED_EDGE('',*,*,#319,.T.);
#229=ORIENTED_EDGE('',*,*,#322,.T.);
#230=ORIENTED_EDGE('',*,*,#325,.T.);
#231=ORIENTED_EDGE('',*,*,#327,.T.);
#232=ORIENTED_EDGE('',*,*,#289,.F.);
#233=ORIENTED_EDGE('',*,*,#330,.T.);
#234=ORIENTED_EDGE('',*,*,#333,.T.);
#235=ORIENTED_EDGE('',*,*,#335,.T.);
#236=ORIENTED_EDGE('',*,*,#285,.F.);
#237=ORIENTED_EDGE('',*,*,#338,.T.);
#238=ORIENTED_EDGE('',*,*,#341,.T.);
#239=ORIENTED_EDGE('',*,*,#344,.T.);
#240=ORIENTED_EDGE('',*,*,#346,.T.);
#241=ORIENTED_EDGE('',*,*,#295,.T.);
#242=ORIENTED_EDGE('',*,*,#299,.T.);
#243=ORIENTED_EDGE('',*,*,#349,.F.);
#244=ORIENTED_EDGE('',*,*,#350,.T.);
#245=ORIENTED_EDGE('',*,*,#300,.F.);
#246=ORIENTED_EDGE('',*,*,#297,.F.);
#247=ORIENTED_EDGE('',*,*,#293,.F.);
#248=ORIENTED_EDGE('',*,*,#345,.F.);
#249=ORIENTED_EDGE('',*,*,#342,.F.);
#250=ORIENTED_EDGE('',*,*,#339,.F.);
#251=ORIENTED_EDGE('',*,*,#336,.F.);
#252=ORIENTED_EDGE('',*,*,#287,.T.);
#253=ORIENTED_EDGE('',*,*,#334,.F.);
#254=ORIENTED_EDGE('',*,*,#331,.F.);
#255=ORIENTED_EDGE('',*,*,#328,.F.);
#256=ORIENTED_EDGE('',*,*,#291,.T.);
#257=ORIENTED_EDGE('',*,*,#326,.F.);
#258=ORIENTED_EDGE('',*,*,#323,.F.);
#259=ORIENTED_EDGE('',*,*,#320,.F.);
#260=ORIENTED_EDGE('',*,*,#317,.F.);
#261=ORIENTED_EDGE('',*,*,#314,.F.);
#262=ORIENTED_EDGE('',*,*,#311,.F.);
#263=ORIENTED_EDGE('',*,*,#309,.F.);
#264=ORIENTED_EDGE('',*,*,#351,.T.);
#265=ORIENTED_EDGE('',*,*,#352,.F.);
#266=ORIENTED_EDGE('',*,*,#353,.T.);
#267=ORIENTED_EDGE('',*,*,#349,.T.);
#268=ORIENTED_EDGE('',*,*,#354,.T.);
#269=ORIENTED_EDGE('',*,*,#305,.F.);
#270=ORIENTED_EDGE('',*,*,#355,.T.);
#271=ORIENTED_EDGE('',*,*,#352,.T.);
#272=ORIENTED_EDGE('',*,*,#356,.T.);
#273=ORIENTED_EDGE('',*,*,#347,.F.);
#274=ORIENTED_EDGE('',*,*,#301,.F.);
#275=ORIENTED_EDGE('',*,*,#350,.F.);
#276=ORIENTED_EDGE('',*,*,#353,.F.);
#277=ORIENTED_EDGE('',*,*,#355,.F.);
#278=ORIENTED_EDGE('',*,*,#304,.F.);
#279=ORIENTED_EDGE('',*,*,#348,.F.);
#280=ORIENTED_EDGE('',*,*,#306,.F.);
#281=ORIENTED_EDGE('',*,*,#356,.F.);
#282=ORIENTED_EDGE('',*,*,#354,.F.);
#283=ORIENTED_EDGE('',*,*,#351,.F.);
#284=ORIENTED_EDGE('',*,*,#308,.F.);
#285=EDGE_CURVE('',#357,#358,#405,.T.);
#286=EDGE_CURVE('',#358,#359,#33,.T.);
#287=EDGE_CURVE('',#360,#359,#406,.T.);
#288=EDGE_CURVE('',#357,#360,#34,.F.);
#289=EDGE_CURVE('',#361,#362,#407,.T.);
#290=EDGE_CURVE('',#362,#363,#35,.T.);
#291=EDGE_CURVE('',#364,#363,#408,.T.);
#292=EDGE_CURVE('',#361,#364,#36,.F.);
#293=EDGE_CURVE('',#365,#366,#37,.T.);
#294=EDGE_CURVE('',#367,#366,#38,.F.);
#295=EDGE_CURVE('',#368,#367,#39,.F.);
#296=EDGE_CURVE('',#368,#365,#40,.F.);
#297=EDGE_CURVE('',#366,#369,#41,.F.);
#298=EDGE_CURVE('',#370,#369,#42,.F.);
#299=EDGE_CURVE('',#367,#370,#43,.T.);
#300=EDGE_CURVE('',#369,#371,#44,.F.);
#301=EDGE_CURVE('',#371,#372,#45,.T.);
#302=EDGE_CURVE('',#370,#372,#46,.F.);
#303=EDGE_CURVE('',#373,#374,#47,.T.);
#304=EDGE_CURVE('',#373,#375,#48,.F.);
#305=EDGE_CURVE('',#375,#376,#49,.T.);
#306=EDGE_CURVE('',#376,#374,#50,.T.);
#307=EDGE_CURVE('',#377,#378,#51,.T.);
#308=EDGE_CURVE('',#377,#379,#52,.F.);
#309=EDGE_CURVE('',#379,#380,#53,.F.);
#310=EDGE_CURVE('',#378,#380,#54,.F.);
#311=EDGE_CURVE('',#380,#381,#55,.F.);
#312=EDGE_CURVE('',#382,#381,#56,.F.);
#313=EDGE_CURVE('',#378,#382,#57,.T.);
#314=EDGE_CURVE('',#381,#383,#58,.F.);
#315=EDGE_CURVE('',#384,#383,#59,.T.);
#316=EDGE_CURVE('',#382,#384,#60,.T.);
#317=EDGE_CURVE('',#383,#385,#409,.T.);
#318=EDGE_CURVE('',#386,#385,#61,.F.);
#319=EDGE_CURVE('',#384,#386,#410,.T.);
#320=EDGE_CURVE('',#385,#387,#62,.F.);
#321=EDGE_CURVE('',#388,#387,#63,.T.);
#322=EDGE_CURVE('',#386,#388,#64,.T.);
#323=EDGE_CURVE('',#387,#389,#65,.F.);
#324=EDGE_CURVE('',#390,#389,#66,.F.);
#325=EDGE_CURVE('',#388,#390,#67,.T.);
#326=EDGE_CURVE('',#389,#363,#68,.F.);
#327=EDGE_CURVE('',#390,#362,#69,.T.);
#328=EDGE_CURVE('',#364,#391,#70,.F.);
#329=EDGE_CURVE('',#392,#391,#71,.T.);
#330=EDGE_CURVE('',#361,#392,#72,.T.);
#331=EDGE_CURVE('',#391,#393,#411,.T.);
#332=EDGE_CURVE('',#394,#393,#73,.F.);
#333=EDGE_CURVE('',#392,#394,#412,.T.);
#334=EDGE_CURVE('',#393,#359,#74,.F.);
#335=EDGE_CURVE('',#394,#358,#75,.T.);
#336=EDGE_CURVE('',#360,#395,#76,.F.);
#337=EDGE_CURVE('',#396,#395,#77,.F.);
#338=EDGE_CURVE('',#357,#396,#78,.T.);
#339=EDGE_CURVE('',#395,#397,#79,.T.);
#340=EDGE_CURVE('',#398,#397,#80,.F.);
#341=EDGE_CURVE('',#396,#398,#81,.F.);
#342=EDGE_CURVE('',#397,#399,#82,.F.);
#343=EDGE_CURVE('',#400,#399,#83,.T.);
#344=EDGE_CURVE('',#398,#400,#84,.T.);
#345=EDGE_CURVE('',#399,#365,#413,.T.);
#346=EDGE_CURVE('',#400,#368,#414,.T.);
#347=EDGE_CURVE('',#372,#373,#415,.F.);
#348=EDGE_CURVE('',#374,#377,#416,.F.);
#349=EDGE_CURVE('',#401,#402,#85,.T.);
#350=EDGE_CURVE('',#401,#371,#417,.T.);
#351=EDGE_CURVE('',#379,#402,#418,.T.);
#352=EDGE_CURVE('',#403,#404,#86,.T.);
#353=EDGE_CURVE('',#403,#401,#12,.T.);
#354=EDGE_CURVE('',#402,#404,#13,.T.);
#355=EDGE_CURVE('',#375,#403,#419,.T.);
#356=EDGE_CURVE('',#404,#376,#420,.T.);
#357=VERTEX_POINT('',#704);
#358=VERTEX_POINT('',#705);
#359=VERTEX_POINT('',#707);
#360=VERTEX_POINT('',#709);
#361=VERTEX_POINT('',#713);
#362=VERTEX_POINT('',#714);
#363=VERTEX_POINT('',#716);
#364=VERTEX_POINT('',#718);
#365=VERTEX_POINT('',#722);
#366=VERTEX_POINT('',#723);
#367=VERTEX_POINT('',#725);
#368=VERTEX_POINT('',#727);
#369=VERTEX_POINT('',#731);
#370=VERTEX_POINT('',#733);
#371=VERTEX_POINT('',#737);
#372=VERTEX_POINT('',#739);
#373=VERTEX_POINT('',#743);
#374=VERTEX_POINT('',#744);
#375=VERTEX_POINT('',#746);
#376=VERTEX_POINT('',#748);
#377=VERTEX_POINT('',#752);
#378=VERTEX_POINT('',#753);
#379=VERTEX_POINT('',#755);
#380=VERTEX_POINT('',#757);
#381=VERTEX_POINT('',#761);
#382=VERTEX_POINT('',#763);
#383=VERTEX_POINT('',#767);
#384=VERTEX_POINT('',#769);
#385=VERTEX_POINT('',#773);
#386=VERTEX_POINT('',#775);
#387=VERTEX_POINT('',#779);
#388=VERTEX_POINT('',#781);
#389=VERTEX_POINT('',#785);
#390=VERTEX_POINT('',#787);
#391=VERTEX_POINT('',#794);
#392=VERTEX_POINT('',#796);
#393=VERTEX_POINT('',#800);
#394=VERTEX_POINT('',#802);
#395=VERTEX_POINT('',#809);
#396=VERTEX_POINT('',#811);
#397=VERTEX_POINT('',#815);
#398=VERTEX_POINT('',#817);
#399=VERTEX_POINT('',#821);
#400=VERTEX_POINT('',#823);
#401=VERTEX_POINT('',#833);
#402=VERTEX_POINT('',#834);
#403=VERTEX_POINT('',#839);
#404=VERTEX_POINT('',#840);
#405=CIRCLE('',#520,0.0013575);
#406=CIRCLE('',#521,0.0013575);
#407=CIRCLE('',#523,0.0013575);
#408=CIRCLE('',#524,0.0013575);
#409=CIRCLE('',#533,0.00065);
#410=CIRCLE('',#534,0.00065);
#411=CIRCLE('',#540,0.001);
#412=CIRCLE('',#541,0.001);
#413=CIRCLE('',#547,0.00065);
#414=CIRCLE('',#548,0.00065);
#415=CIRCLE('',#550,0.003);
#416=CIRCLE('',#551,0.003);
#417=CIRCLE('',#553,0.003);
#418=CIRCLE('',#554,0.003);
#419=CIRCLE('',#557,0.003);
#420=CIRCLE('',#558,0.003);
#421=EDGE_LOOP('',(#141,#142,#143,#144));
#422=EDGE_LOOP('',(#145,#146,#147,#148));
#423=EDGE_LOOP('',(#149,#150,#151,#152));
#424=EDGE_LOOP('',(#153,#154,#155,#156));
#425=EDGE_LOOP('',(#157,#158,#159,#160));
#426=EDGE_LOOP('',(#161,#162,#163,#164));
#427=EDGE_LOOP('',(#165,#166,#167,#168));
#428=EDGE_LOOP('',(#169,#170,#171,#172));
#429=EDGE_LOOP('',(#173,#174,#175,#176));
#430=EDGE_LOOP('',(#177,#178,#179,#180));
#431=EDGE_LOOP('',(#181,#182,#183,#184));
#432=EDGE_LOOP('',(#185,#186,#187,#188));
#433=EDGE_LOOP('',(#189,#190,#191,#192));
#434=EDGE_LOOP('',(#193,#194,#195,#196));
#435=EDGE_LOOP('',(#197,#198,#199,#200));
#436=EDGE_LOOP('',(#201,#202,#203,#204));
#437=EDGE_LOOP('',(#205,#206,#207,#208));
#438=EDGE_LOOP('',(#209,#210,#211,#212));
#439=EDGE_LOOP('',(#213,#214,#215,#216));
#440=EDGE_LOOP('',(#217,#218,#219,#220));
#441=EDGE_LOOP('',(#221,#222,#223,#224,#225,#226,#227,#228,#229,#230,#231,
#232,#233,#234,#235,#236,#237,#238,#239,#240,#241,#242));
#442=EDGE_LOOP('',(#243,#244,#245,#246,#247,#248,#249,#250,#251,#252,#253,
#254,#255,#256,#257,#258,#259,#260,#261,#262,#263,#264));
#443=EDGE_LOOP('',(#265,#266,#267,#268));
#444=EDGE_LOOP('',(#269,#270,#271,#272));
#445=EDGE_LOOP('',(#273,#274,#275,#276,#277,#278));
#446=EDGE_LOOP('',(#279,#280,#281,#282,#283,#284));
#447=FACE_BOUND('',#421,.T.);
#448=FACE_BOUND('',#422,.T.);
#449=FACE_BOUND('',#423,.T.);
#450=FACE_BOUND('',#424,.T.);
#451=FACE_BOUND('',#425,.T.);
#452=FACE_BOUND('',#426,.T.);
#453=FACE_BOUND('',#427,.T.);
#454=FACE_BOUND('',#428,.T.);
#455=FACE_BOUND('',#429,.T.);
#456=FACE_BOUND('',#430,.T.);
#457=FACE_BOUND('',#431,.T.);
#458=FACE_BOUND('',#432,.T.);
#459=FACE_BOUND('',#433,.T.);
#460=FACE_BOUND('',#434,.T.);
#461=FACE_BOUND('',#435,.T.);
#462=FACE_BOUND('',#436,.T.);
#463=FACE_BOUND('',#437,.T.);
#464=FACE_BOUND('',#438,.T.);
#465=FACE_BOUND('',#439,.T.);
#466=FACE_BOUND('',#440,.T.);
#467=FACE_BOUND('',#441,.T.);
#468=FACE_BOUND('',#442,.T.);
#469=FACE_BOUND('',#443,.T.);
#470=FACE_BOUND('',#444,.T.);
#471=FACE_BOUND('',#445,.T.);
#472=FACE_BOUND('',#446,.T.);
#473=CYLINDRICAL_SURFACE('',#519,0.0013575);
#474=CYLINDRICAL_SURFACE('',#522,0.0013575);
#475=CYLINDRICAL_SURFACE('',#532,0.00065);
#476=CYLINDRICAL_SURFACE('',#539,0.001);
#477=CYLINDRICAL_SURFACE('',#546,0.00065);
#478=CYLINDRICAL_SURFACE('',#559,0.003);
#479=CYLINDRICAL_SURFACE('',#560,0.003);
#480=ADVANCED_FACE('',(#447),#473,.T.);
#481=ADVANCED_FACE('',(#448),#474,.T.);
#482=ADVANCED_FACE('',(#449),#14,.F.);
#483=ADVANCED_FACE('',(#450),#15,.F.);
#484=ADVANCED_FACE('',(#451),#16,.F.);
#485=ADVANCED_FACE('',(#452),#17,.F.);
#486=ADVANCED_FACE('',(#453),#18,.F.);
#487=ADVANCED_FACE('',(#454),#19,.F.);
#488=ADVANCED_FACE('',(#455),#20,.F.);
#489=ADVANCED_FACE('',(#456),#475,.F.);
#490=ADVANCED_FACE('',(#457),#21,.F.);
#491=ADVANCED_FACE('',(#458),#22,.F.);
#492=ADVANCED_FACE('',(#459),#23,.F.);
#493=ADVANCED_FACE('',(#460),#24,.F.);
#494=ADVANCED_FACE('',(#461),#476,.F.);
#495=ADVANCED_FACE('',(#462),#25,.F.);
#496=ADVANCED_FACE('',(#463),#26,.F.);
#497=ADVANCED_FACE('',(#464),#27,.F.);
#498=ADVANCED_FACE('',(#465),#28,.F.);
#499=ADVANCED_FACE('',(#466),#477,.F.);
#500=ADVANCED_FACE('',(#467),#29,.F.);
#501=ADVANCED_FACE('',(#468),#30,.T.);
#502=ADVANCED_FACE('',(#469),#31,.T.);
#503=ADVANCED_FACE('',(#470),#32,.T.);
#504=ADVANCED_FACE('',(#471),#478,.T.);
#505=ADVANCED_FACE('',(#472),#479,.T.);
#506=CLOSED_SHELL('',(#480,#481,#482,#483,#484,#485,#486,#487,#488,#489,
#490,#491,#492,#493,#494,#495,#496,#497,#498,#499,#500,#501,#502,#503,#504,
#505));
#507=STYLED_ITEM('',(#508),#515);
#508=PRESENTATION_STYLE_ASSIGNMENT((#509));
#509=SURFACE_STYLE_USAGE(.BOTH.,#510);
#510=SURFACE_SIDE_STYLE('',(#511));
#511=SURFACE_STYLE_FILL_AREA(#512);
#512=FILL_AREA_STYLE('',(#513));
#513=FILL_AREA_STYLE_COLOUR('',#514);
#514=COLOUR_RGB('',0.792156862745098,0.819607843137255,0.933333333333333);
#515=MANIFOLD_SOLID_BREP('[a]_spring_lid_1x',#506);
#516=SHAPE_DEFINITION_REPRESENTATION(#860,#517);
#517=SHAPE_REPRESENTATION('[a]_spring_lid_1x',(#518),#855);
#518=AXIS2_PLACEMENT_3D('',#701,#561,#562);
#519=AXIS2_PLACEMENT_3D('',#702,#563,#564);
#520=AXIS2_PLACEMENT_3D('',#703,#565,#566);
#521=AXIS2_PLACEMENT_3D('',#708,#568,#569);
#522=AXIS2_PLACEMENT_3D('',#711,#571,#572);
#523=AXIS2_PLACEMENT_3D('',#712,#573,#574);
#524=AXIS2_PLACEMENT_3D('',#717,#576,#577);
#525=AXIS2_PLACEMENT_3D('',#720,#579,#580);
#526=AXIS2_PLACEMENT_3D('',#729,#585,#586);
#527=AXIS2_PLACEMENT_3D('',#735,#590,#591);
#528=AXIS2_PLACEMENT_3D('',#741,#595,#596);
#529=AXIS2_PLACEMENT_3D('',#750,#601,#602);
#530=AXIS2_PLACEMENT_3D('',#759,#607,#608);
#531=AXIS2_PLACEMENT_3D('',#765,#612,#613);
#532=AXIS2_PLACEMENT_3D('',#771,#617,#618);
#533=AXIS2_PLACEMENT_3D('',#772,#619,#620);
#534=AXIS2_PLACEMENT_3D('',#776,#622,#623);
#535=AXIS2_PLACEMENT_3D('',#777,#624,#625);
#536=AXIS2_PLACEMENT_3D('',#783,#629,#630);
#537=AXIS2_PLACEMENT_3D('',#789,#634,#635);
#538=AXIS2_PLACEMENT_3D('',#792,#638,#639);
#539=AXIS2_PLACEMENT_3D('',#798,#643,#644);
#540=AXIS2_PLACEMENT_3D('',#799,#645,#646);
#541=AXIS2_PLACEMENT_3D('',#803,#648,#649);
#542=AXIS2_PLACEMENT_3D('',#804,#650,#651);
#543=AXIS2_PLACEMENT_3D('',#807,#654,#655);
#544=AXIS2_PLACEMENT_3D('',#813,#659,#660);
#545=AXIS2_PLACEMENT_3D('',#819,#664,#665);
#546=AXIS2_PLACEMENT_3D('',#825,#669,#670);
#547=AXIS2_PLACEMENT_3D('',#826,#671,#672);
#548=AXIS2_PLACEMENT_3D('',#827,#673,#674);
#549=AXIS2_PLACEMENT_3D('',#828,#675,#676);
#550=AXIS2_PLACEMENT_3D('',#829,#677,#678);
#551=AXIS2_PLACEMENT_3D('',#830,#679,#680);
#552=AXIS2_PLACEMENT_3D('',#831,#681,#682);
#553=AXIS2_PLACEMENT_3D('',#835,#684,#685);
#554=AXIS2_PLACEMENT_3D('',#836,#686,#687);
#555=AXIS2_PLACEMENT_3D('',#837,#688,#689);
#556=AXIS2_PLACEMENT_3D('',#849,#691,#692);
#557=AXIS2_PLACEMENT_3D('',#850,#693,#694);
#558=AXIS2_PLACEMENT_3D('',#851,#695,#696);
#559=AXIS2_PLACEMENT_3D('',#852,#697,#698);
#560=AXIS2_PLACEMENT_3D('',#853,#699,#700);
#561=DIRECTION('',(0.,0.,1.));
#562=DIRECTION('',(1.,0.,0.));
#563=DIRECTION('',(0.,0.,1.));
#564=DIRECTION('',(1.,-1.11022302462516E-16,0.));
#565=DIRECTION('',(0.,0.,1.));
#566=DIRECTION('',(1.,-1.11022302462516E-16,0.));
#567=DIRECTION('',(0.,0.,1.));
#568=DIRECTION('',(0.,0.,1.));
#569=DIRECTION('',(1.,-1.11022302462516E-16,0.));
#570=DIRECTION('',(0.,0.,-1.));
#571=DIRECTION('',(0.,0.,1.));
#572=DIRECTION('',(1.,-1.11022302462516E-16,0.));
#573=DIRECTION('',(0.,0.,1.));
#574=DIRECTION('',(1.,-1.11022302462516E-16,0.));
#575=DIRECTION('',(0.,0.,1.));
#576=DIRECTION('',(0.,0.,1.));
#577=DIRECTION('',(1.,-1.11022302462516E-16,0.));
#578=DIRECTION('',(0.,0.,-1.));
#579=DIRECTION('',(1.11022302462516E-16,1.,0.));
#580=DIRECTION('',(0.,0.,-1.));
#581=DIRECTION('',(-1.,1.11022302462516E-16,0.));
#582=DIRECTION('',(0.,0.,-1.));
#583=DIRECTION('',(1.,-1.11022302462516E-16,0.));
#584=DIRECTION('',(0.,0.,-1.));
#585=DIRECTION('',(-0.470630466602441,0.882330416513887,0.));
#586=DIRECTION('',(0.882330416513887,0.470630466602441,0.));
#587=DIRECTION('',(0.882330416513887,0.470630466602441,0.));
#588=DIRECTION('',(0.,0.,-1.));
#589=DIRECTION('',(-0.882330416513888,-0.470630466602439,0.));
#590=DIRECTION('',(-2.35922392732845E-16,1.,0.));
#591=DIRECTION('',(1.,2.35922392732845E-16,0.));
#592=DIRECTION('',(1.,2.35922392732845E-16,0.));
#593=DIRECTION('',(0.,0.,-1.));
#594=DIRECTION('',(1.,-1.11022302462516E-16,0.));
#595=DIRECTION('',(1.,-1.11022302462516E-16,0.));
#596=DIRECTION('',(0.,0.,-1.));
#597=DIRECTION('',(1.11022302462516E-16,1.,0.));
#598=DIRECTION('',(0.,0.,-1.));
#599=DIRECTION('',(1.11022302462516E-16,1.,0.));
#600=DIRECTION('',(0.,0.,-1.));
#601=DIRECTION('',(-4.57966997657877E-16,-1.,0.));
#602=DIRECTION('',(-1.,4.57966997657877E-16,0.));
#603=DIRECTION('',(1.,-1.11022302462516E-16,0.));
#604=DIRECTION('',(0.,0.,-1.));
#605=DIRECTION('',(-1.,4.57966997657877E-16,0.));
#606=DIRECTION('',(0.,0.,-1.));
#607=DIRECTION('',(-0.470630466602442,-0.882330416513886,0.));
#608=DIRECTION('',(-0.882330416513886,0.470630466602442,0.));
#609=DIRECTION('',(-0.882330416513886,0.470630466602442,0.));
#610=DIRECTION('',(0.,0.,-1.));
#611=DIRECTION('',(0.882330416513887,-0.47063046660244,0.));
#612=DIRECTION('',(3.0013302189106E-16,-1.,0.));
#613=DIRECTION('',(-1.,-3.0013302189106E-16,0.));
#614=DIRECTION('',(-1.,-3.0013302189106E-16,0.));
#615=DIRECTION('',(0.,0.,1.));
#616=DIRECTION('',(1.,-1.11022302462516E-16,0.));
#617=DIRECTION('',(0.,0.,1.));
#618=DIRECTION('',(1.,-1.11022302462516E-16,0.));
#619=DIRECTION('',(0.,0.,1.));
#620=DIRECTION('',(1.,-1.11022302462516E-16,0.));
#621=DIRECTION('',(0.,0.,-1.));
#622=DIRECTION('',(0.,0.,1.));
#623=DIRECTION('',(1.,-1.11022302462516E-16,0.));
#624=DIRECTION('',(0.923076923076922,-0.384615384615388,0.));
#625=DIRECTION('',(-0.384615384615388,-0.923076923076922,0.));
#626=DIRECTION('',(-0.384615384615388,-0.923076923076922,0.));
#627=DIRECTION('',(0.,0.,1.));
#628=DIRECTION('',(0.384615384615385,0.923076923076923,0.));
#629=DIRECTION('',(-1.11022302462516E-16,-1.,0.));
#630=DIRECTION('',(0.,0.,1.));
#631=DIRECTION('',(-1.,1.11022302462516E-16,0.));
#632=DIRECTION('',(0.,0.,-1.));
#633=DIRECTION('',(1.,-1.11022302462516E-16,0.));
#634=DIRECTION('',(-0.5,-0.866025403784438,0.));
#635=DIRECTION('',(-0.866025403784438,0.5,-1.57772181044203E-30));
#636=DIRECTION('',(-0.866025403784438,0.5,-1.57772181044203E-30));
#637=DIRECTION('',(0.866025403784437,-0.5,1.57772181044203E-30));
#638=DIRECTION('',(-0.0508182286941373,0.998707919079643,-9.86076131526265E-32));
#639=DIRECTION('',(0.998707919079643,0.0508182286941373,0.));
#640=DIRECTION('',(0.998707919079643,0.0508182286941373,0.));
#641=DIRECTION('',(0.,0.,1.));
#642=DIRECTION('',(-0.998707919079643,-0.0508182286941384,0.));
#643=DIRECTION('',(0.,0.,1.));
#644=DIRECTION('',(-1.,2.33486982377251E-16,0.));
#645=DIRECTION('',(0.,0.,1.));
#646=DIRECTION('',(1.,-1.11022302462516E-16,0.));
#647=DIRECTION('',(0.,0.,-1.));
#648=DIRECTION('',(0.,0.,1.));
#649=DIRECTION('',(1.,-1.11022302462516E-16,0.));
#650=DIRECTION('',(-0.0508182286941373,-0.998707919079643,9.86076131526265E-32));
#651=DIRECTION('',(-0.998707919079643,0.0508182286941373,0.));
#652=DIRECTION('',(-0.998707919079643,0.0508182286941373,0.));
#653=DIRECTION('',(0.998707919079643,-0.0508182286941384,0.));
#654=DIRECTION('',(-0.5,0.866025403784438,0.));
#655=DIRECTION('',(0.866025403784438,0.5,-1.57772181044203E-30));
#656=DIRECTION('',(0.866025403784438,0.5,-1.57772181044203E-30));
#657=DIRECTION('',(0.,0.,-1.));
#658=DIRECTION('',(-0.866025403784437,-0.5,1.57772181044203E-30));
#659=DIRECTION('',(1.11022302462516E-16,1.,0.));
#660=DIRECTION('',(0.,0.,-1.));
#661=DIRECTION('',(-1.,1.11022302462516E-16,0.));
#662=DIRECTION('',(0.,0.,-1.));
#663=DIRECTION('',(1.,-1.11022302462516E-16,0.));
#664=DIRECTION('',(0.923076923076923,0.384615384615385,0.));
#665=DIRECTION('',(0.384615384615385,-0.923076923076923,0.));
#666=DIRECTION('',(0.384615384615385,-0.923076923076923,0.));
#667=DIRECTION('',(0.,0.,1.));
#668=DIRECTION('',(-0.384615384615379,0.923076923076926,0.));
#669=DIRECTION('',(0.,0.,1.));
#670=DIRECTION('',(1.,-1.11022302462516E-16,0.));
#671=DIRECTION('',(0.,0.,1.));
#672=DIRECTION('',(1.,-1.11022302462516E-16,0.));
#673=DIRECTION('',(0.,0.,1.));
#674=DIRECTION('',(1.,-1.11022302462516E-16,0.));
#675=DIRECTION('',(0.,0.,1.));
#676=DIRECTION('',(1.,-1.11022302462516E-16,0.));
#677=DIRECTION('',(0.,0.,1.));
#678=DIRECTION('',(1.,-1.11022302462516E-16,0.));
#679=DIRECTION('',(0.,0.,1.));
#680=DIRECTION('',(1.,-1.11022302462516E-16,0.));
#681=DIRECTION('',(0.,0.,1.));
#682=DIRECTION('',(1.,-1.11022302462516E-16,0.));
#683=DIRECTION('',(1.11022302462516E-16,1.,0.));
#684=DIRECTION('',(0.,0.,1.));
#685=DIRECTION('',(1.,-1.11022302462516E-16,0.));
#686=DIRECTION('',(0.,0.,1.));
#687=DIRECTION('',(1.,-1.11022302462516E-16,0.));
#688=DIRECTION('',(0.819231920519041,-9.09530140668128E-17,0.573462344363328));
#689=DIRECTION('',(0.573462344363328,-6.36671098467689E-17,-0.819231920519041));
#690=DIRECTION('',(1.11022302462516E-16,1.,0.));
#691=DIRECTION('',(0.,0.,1.));
#692=DIRECTION('',(1.,-1.11022302462516E-16,0.));
#693=DIRECTION('',(0.,0.,1.));
#694=DIRECTION('',(1.,-1.11022302462516E-16,0.));
#695=DIRECTION('',(0.,0.,1.));
#696=DIRECTION('',(1.,-1.11022302462516E-16,0.));
#697=DIRECTION('',(0.,0.,1.));
#698=DIRECTION('',(1.,-1.11022302462516E-16,0.));
#699=DIRECTION('',(0.,0.,1.));
#700=DIRECTION('',(1.,-1.11022302462516E-16,0.));
#701=CARTESIAN_POINT('',(0.,0.,0.));
#702=CARTESIAN_POINT('',(0.0104969729033455,-0.0028425,6.93889390390723E-18));
#703=CARTESIAN_POINT('',(0.0104969729033455,-0.0028425,6.93889390390723E-18));
#704=CARTESIAN_POINT('',(0.0118245796464638,-0.00312581358179041,0.));
#705=CARTESIAN_POINT('',(0.0105659586487978,-0.0014867539998494,0.));
#706=CARTESIAN_POINT('',(0.0105659586487978,-0.0014867539998494,0.));
#707=CARTESIAN_POINT('',(0.0105659586487978,-0.0014867539998494,0.001));
#708=CARTESIAN_POINT('',(0.0104969729033455,-0.0028425,0.001));
#709=CARTESIAN_POINT('',(0.0118245796464638,-0.00312581358179041,0.001));
#710=CARTESIAN_POINT('',(0.0118245796464638,-0.00312581358179041,0.));
#711=CARTESIAN_POINT('',(0.0104969729033455,0.0028425,6.93889390390723E-18));
#712=CARTESIAN_POINT('',(0.0104969729033455,0.0028425,6.93889390390723E-18));
#713=CARTESIAN_POINT('',(0.0105659586487978,0.00148675399984939,0.));
#714=CARTESIAN_POINT('',(0.0118245796464638,0.0031258135817904,0.));
#715=CARTESIAN_POINT('',(0.0118245796464638,0.0031258135817904,0.));
#716=CARTESIAN_POINT('',(0.0118245796464638,0.00312581358179042,0.001));
#717=CARTESIAN_POINT('',(0.0104969729033455,0.0028425,0.001));
#718=CARTESIAN_POINT('',(0.0105659586487978,0.00148675399984939,0.001));
#719=CARTESIAN_POINT('',(0.0105659586487978,0.00148675399984939,0.));
#720=CARTESIAN_POINT('',(0.0059355095289373,-0.00298321037608131,0.));
#721=CARTESIAN_POINT('',(0.0059355095289373,-0.00298321037608131,0.001));
#722=CARTESIAN_POINT('',(0.00921914389337938,-0.00298321037608131,0.001));
#723=CARTESIAN_POINT('',(0.005,-0.00298321037608131,0.001));
#724=CARTESIAN_POINT('',(0.005,-0.00298321037608131,0.));
#725=CARTESIAN_POINT('',(0.005,-0.00298321037608131,0.));
#726=CARTESIAN_POINT('',(0.00921914389337938,-0.00298321037608131,-6.93889390390723E-18));
#727=CARTESIAN_POINT('',(0.00921914389337938,-0.00298321037608131,-6.93889390390723E-18));
#728=CARTESIAN_POINT('',(0.00921914389337938,-0.00298321037608131,-6.93889390390723E-18));
#729=CARTESIAN_POINT('',(0.0058459042379778,-0.0025320094441295,6.93889390390723E-18));
#730=CARTESIAN_POINT('',(0.0058459042379778,-0.0025320094441295,0.001));
#731=CARTESIAN_POINT('',(0.003,-0.00405,0.001));
#732=CARTESIAN_POINT('',(0.003,-0.00405,6.93889390390723E-18));
#733=CARTESIAN_POINT('',(0.003,-0.00405,6.93889390390723E-18));
#734=CARTESIAN_POINT('',(0.005,-0.00298321037608131,0.));
#735=CARTESIAN_POINT('',(0.0059355095289373,-0.00405,0.));
#736=CARTESIAN_POINT('',(0.0059355095289373,-0.00405,0.001));
#737=CARTESIAN_POINT('',(-0.004,-0.00405,0.001));
#738=CARTESIAN_POINT('',(-0.004,-0.00405,-6.93889390390723E-18));
#739=CARTESIAN_POINT('',(-0.004,-0.00405,-6.93889390390723E-18));
#740=CARTESIAN_POINT('',(0.00921914389337938,-0.00405,-6.93889390390723E-18));
#741=CARTESIAN_POINT('',(-0.007,-0.0027,0.));
#742=CARTESIAN_POINT('',(-0.007,0.0036332103760813,0.));
#743=CARTESIAN_POINT('',(-0.007,-0.00105,0.));
#744=CARTESIAN_POINT('',(-0.007,0.00105,0.));
#745=CARTESIAN_POINT('',(-0.007,-0.00105,0.));
#746=CARTESIAN_POINT('',(-0.007,-0.00105,0.002));
#747=CARTESIAN_POINT('',(-0.007,-0.0027,0.002));
#748=CARTESIAN_POINT('',(-0.007,0.00105,0.002));
#749=CARTESIAN_POINT('',(-0.007,0.00105,0.));
#750=CARTESIAN_POINT('',(0.0059355095289373,0.00405,0.));
#751=CARTESIAN_POINT('',(0.00921914389337938,0.00405,-6.93889390390723E-18));
#752=CARTESIAN_POINT('',(-0.004,0.00405,-6.93889390390723E-18));
#753=CARTESIAN_POINT('',(0.003,0.00405,6.93889390390723E-18));
#754=CARTESIAN_POINT('',(-0.004,0.00405,-6.93889390390723E-18));
#755=CARTESIAN_POINT('',(-0.004,0.00405,0.001));
#756=CARTESIAN_POINT('',(0.0059355095289373,0.00405,0.001));
#757=CARTESIAN_POINT('',(0.003,0.00405,0.001));
#758=CARTESIAN_POINT('',(0.003,0.00405,6.93889390390723E-18));
#759=CARTESIAN_POINT('',(0.00808826274633367,0.00133594704921959,0.));
#760=CARTESIAN_POINT('',(0.00808826274633367,0.00133594704921959,0.001));
#761=CARTESIAN_POINT('',(0.005,0.0029832103760813,0.001));
#762=CARTESIAN_POINT('',(0.005,0.0029832103760813,0.));
#763=CARTESIAN_POINT('',(0.005,0.0029832103760813,0.));
#764=CARTESIAN_POINT('',(0.003,0.00405,6.93889390390723E-18));
#765=CARTESIAN_POINT('',(0.0059355095289373,0.0029832103760813,0.));
#766=CARTESIAN_POINT('',(0.0059355095289373,0.0029832103760813,0.001));
#767=CARTESIAN_POINT('',(0.00921914389337938,0.00298321037608129,0.001));
#768=CARTESIAN_POINT('',(0.00921914389337938,0.00298321037608129,-6.93889390390723E-18));
#769=CARTESIAN_POINT('',(0.00921914389337938,0.00298321037608129,-6.93889390390723E-18));
#770=CARTESIAN_POINT('',(0.00921914389337938,0.00298321037608129,-6.93889390390723E-18));
#771=CARTESIAN_POINT('',(0.00921914389337938,0.0036332103760813,-6.93889390390723E-18));
#772=CARTESIAN_POINT('',(0.00921914389337938,0.0036332103760813,0.001));
#773=CARTESIAN_POINT('',(0.00952093958832326,0.00305752004394659,0.001));
#774=CARTESIAN_POINT('',(0.00952093958832326,0.00305752004394659,6.93889390390723E-18));
#775=CARTESIAN_POINT('',(0.00952093958832326,0.00305752004394659,6.93889390390723E-18));
#776=CARTESIAN_POINT('',(0.00921914389337938,0.0036332103760813,-6.93889390390723E-18));
#777=CARTESIAN_POINT('',(0.00694646056985315,-0.00312122960038161,0.));
#778=CARTESIAN_POINT('',(0.00694646056985315,-0.00312122960038161,0.001));
#779=CARTESIAN_POINT('',(0.00986876777514039,0.00389230769230769,0.001));
#780=CARTESIAN_POINT('',(0.00986876777514039,0.00389230769230769,0.));
#781=CARTESIAN_POINT('',(0.00986876777514038,0.00389230769230769,0.));
#782=CARTESIAN_POINT('',(0.00952093958832326,0.00305752004394659,6.93889390390723E-18));
#783=CARTESIAN_POINT('',(0.0059355095289373,0.00389230769230769,0.));
#784=CARTESIAN_POINT('',(0.0059355095289373,0.00389230769230769,0.001));
#785=CARTESIAN_POINT('',(0.0104969729033455,0.00389230769230769,0.001));
#786=CARTESIAN_POINT('',(0.0104969729033455,0.00389230769230772,6.93889390390723E-18));
#787=CARTESIAN_POINT('',(0.0104969729033455,0.00389230769230769,6.93889390390723E-18));
#788=CARTESIAN_POINT('',(0.00921914389337938,0.00389230769230769,-6.93889390390723E-18));
#789=CARTESIAN_POINT('',(0.00993042833809037,0.00421940234956569,0.));
#790=CARTESIAN_POINT('',(0.00993042833809037,0.00421940234956569,0.001));
#791=CARTESIAN_POINT('',(0.0104969729033455,0.00389230769230769,6.93889390390723E-18));
#792=CARTESIAN_POINT('',(0.0057349791137559,0.00124093455841079,0.));
#793=CARTESIAN_POINT('',(0.0057349791137559,0.00124093455841079,0.001));
#794=CARTESIAN_POINT('',(0.001,0.001,0.001));
#795=CARTESIAN_POINT('',(0.001,0.001,0.));
#796=CARTESIAN_POINT('',(0.001,0.001,0.));
#797=CARTESIAN_POINT('',(0.0105659586487978,0.00148675399984939,0.));
#798=CARTESIAN_POINT('',(0.001,-3.46944695195361E-18,0.));
#799=CARTESIAN_POINT('',(0.001,-3.46944695195361E-18,0.001));
#800=CARTESIAN_POINT('',(0.001,-0.001,0.001));
#801=CARTESIAN_POINT('',(0.001,-0.001,0.));
#802=CARTESIAN_POINT('',(0.001,-0.001,0.));
#803=CARTESIAN_POINT('',(0.001,-3.46944695195361E-18,0.));
#804=CARTESIAN_POINT('',(0.0060090429778803,-0.00125488001719591,0.));
#805=CARTESIAN_POINT('',(0.0060090429778803,-0.00125488001719591,0.001));
#806=CARTESIAN_POINT('',(0.001,-0.001,0.));
#807=CARTESIAN_POINT('',(0.00759215974787239,-0.00556940234956571,0.));
#808=CARTESIAN_POINT('',(0.00759215974787239,-0.00556940234956571,0.001));
#809=CARTESIAN_POINT('',(0.0104969729033455,-0.0038923076923077,0.001));
#810=CARTESIAN_POINT('',(0.0104969729033455,-0.0038923076923077,6.93889390390723E-18));
#811=CARTESIAN_POINT('',(0.0104969729033455,-0.0038923076923077,6.93889390390723E-18));
#812=CARTESIAN_POINT('',(0.0118245796464638,-0.00312581358179041,0.));
#813=CARTESIAN_POINT('',(0.0059355095289373,-0.0038923076923077,0.));
#814=CARTESIAN_POINT('',(0.0059355095289373,-0.0038923076923077,0.001));
#815=CARTESIAN_POINT('',(0.0098687677751404,-0.0038923076923077,0.001));
#816=CARTESIAN_POINT('',(0.0098687677751404,-0.0038923076923077,0.));
#817=CARTESIAN_POINT('',(0.00986876777514039,-0.0038923076923077,0.));
#818=CARTESIAN_POINT('',(0.00921914389337938,-0.0038923076923077,-6.93889390390723E-18));
#819=CARTESIAN_POINT('',(0.00886362033316678,-0.00147995383157101,0.));
#820=CARTESIAN_POINT('',(0.00886362033316678,-0.00147995383157101,0.001));
#821=CARTESIAN_POINT('',(0.00952093958832328,-0.00305752004394666,0.001));
#822=CARTESIAN_POINT('',(0.00952093958832326,-0.00305752004394661,6.93889390390723E-18));
#823=CARTESIAN_POINT('',(0.00952093958832327,-0.00305752004394661,6.93889390390723E-18));
#824=CARTESIAN_POINT('',(0.00986876777514038,-0.0038923076923077,0.));
#825=CARTESIAN_POINT('',(0.00921914389337938,-0.0036332103760813,-6.93889390390723E-18));
#826=CARTESIAN_POINT('',(0.00921914389337938,-0.0036332103760813,0.001));
#827=CARTESIAN_POINT('',(0.00921914389337938,-0.0036332103760813,-6.93889390390723E-18));
#828=CARTESIAN_POINT('',(0.00921914389337938,0.0036332103760813,-6.93889390390723E-18));
#829=CARTESIAN_POINT('',(-0.004,-0.00105,-6.93889390390723E-18));
#830=CARTESIAN_POINT('',(-0.004,0.00105,-6.93889390390723E-18));
#831=CARTESIAN_POINT('',(0.00921914389337938,0.0036332103760813,0.001));
#832=CARTESIAN_POINT('',(-0.0058,-0.00638238075793811,0.001));
#833=CARTESIAN_POINT('',(-0.0058,-0.00345,0.001));
#834=CARTESIAN_POINT('',(-0.0058,0.00345,0.001));
#835=CARTESIAN_POINT('',(-0.004,-0.00105,0.001));
#836=CARTESIAN_POINT('',(-0.004,0.00105,0.001));
#837=CARTESIAN_POINT('',(-0.0058,-0.00638238075793811,0.001));
#838=CARTESIAN_POINT('',(-0.0065,-0.00638238075793811,0.002));
#839=CARTESIAN_POINT('',(-0.0065,-0.0027083123951777,0.002));
#840=CARTESIAN_POINT('',(-0.0065,0.00270831239517769,0.002));
#841=CARTESIAN_POINT('',(-0.00649999999999999,-0.00270831239517771,0.00199999999999999));
#842=CARTESIAN_POINT('',(-0.00631208498165621,-0.00299160494441366,0.00173154997379459));
#843=CARTESIAN_POINT('',(-0.00607196084726647,-0.00324602936455016,0.00138851549609497));
#844=CARTESIAN_POINT('',(-0.00579999999999999,-0.00345,0.000999999999999986));
#845=CARTESIAN_POINT('',(-0.0058,0.00345,0.001));
#846=CARTESIAN_POINT('',(-0.00607196084726656,0.00324602936455011,0.00138851549609508));
#847=CARTESIAN_POINT('',(-0.00631208498165613,0.00299160494441377,0.00173154997379448));
#848=CARTESIAN_POINT('',(-0.0065,0.00270831239517769,0.002));
#849=CARTESIAN_POINT('',(-0.0065,-0.00638238075793811,0.002));
#850=CARTESIAN_POINT('',(-0.004,-0.00105,0.002));
#851=CARTESIAN_POINT('',(-0.004,0.00105,0.002));
#852=CARTESIAN_POINT('',(-0.004,-0.00105,-6.93889390390723E-18));
#853=CARTESIAN_POINT('',(-0.004,0.00105,-6.93889390390723E-18));
#854=MECHANICAL_DESIGN_GEOMETRIC_PRESENTATION_REPRESENTATION('',(#507),
#855);
#855=(
GEOMETRIC_REPRESENTATION_CONTEXT(3)
GLOBAL_UNCERTAINTY_ASSIGNED_CONTEXT((#856))
GLOBAL_UNIT_ASSIGNED_CONTEXT((#859,#858,#857))
REPRESENTATION_CONTEXT('[a]_spring_lid_1x','TOP_LEVEL_ASSEMBLY_PART')
);
#856=UNCERTAINTY_MEASURE_WITH_UNIT(LENGTH_MEASURE(2.E-5),#859,
'DISTANCE_ACCURACY_VALUE','Maximum Tolerance applied to model');
#857=(
NAMED_UNIT(*)
SI_UNIT($,.STERADIAN.)
SOLID_ANGLE_UNIT()
);
#858=(
NAMED_UNIT(*)
PLANE_ANGLE_UNIT()
SI_UNIT($,.RADIAN.)
);
#859=(
LENGTH_UNIT()
NAMED_UNIT(*)
SI_UNIT($,.METRE.)
);
#860=PRODUCT_DEFINITION_SHAPE('','',#861);
#861=PRODUCT_DEFINITION('','',#863,#862);
#862=PRODUCT_DEFINITION_CONTEXT('',#869,'design');
#863=PRODUCT_DEFINITION_FORMATION_WITH_SPECIFIED_SOURCE('','',#865,
 .NOT_KNOWN.);
#864=PRODUCT_RELATED_PRODUCT_CATEGORY('','',(#865));
#865=PRODUCT('[a]_spring_lid_1x','[a]_spring_lid_1x',
'[a]_spring_lid_1x',(#867));
#866=PRODUCT_CATEGORY('','');
#867=PRODUCT_CONTEXT('',#869,'mechanical');
#868=APPLICATION_PROTOCOL_DEFINITION('international standard',
'ap242_managed_model_based_3d_engineering',2020,#869);
#869=APPLICATION_CONTEXT('managed model based 3d engineering');
ENDSEC;
END-ISO-10303-21;
