ISO-10303-21;
HEADER;
/* Generated by software containing ST-Developer
 * from STEP Tools, Inc. (www.steptools.com) 
 */
/* OPTION: using custom renumber hook */

FILE_DESCRIPTION(
/* description */ ('STEP AP242 Edition 2',
'CAx-IF Rec.Pracs.---Representation and Presentation of Product Manufa
cturing Information (PMI)---4.0---2014-10-13',
'CAx-IF Rec.Pracs.---3D Tessellated Geometry---0.4---2014-09-14','2;1',
'CAx-IF Rec.Pracs.---User Defined Attributes---1.5---2016-08-15'),
/* implementation_level */ '2;1');

FILE_NAME(
/* name */ 'Magnet Insertion Tool - Part 1',
/* time_stamp */ '2026-07-20T16:13:43Z',
/* author */ (''),
/* organization */ (''),
/* preprocessor_version */ 'ST-DEVELOPER v20',
/* originating_system */ 'ONSHAPE BY PTC INC, 1.218',
/* authorisation */ '  ');

FILE_SCHEMA (('AP242_MANAGED_MODEL_BASED_3D_ENGINEERING_MIM_LF { 1 0 10303 442 3 1 4 }'));
ENDSEC;

DATA;
#10=SHAPE_REPRESENTATION_RELATIONSHIP('','',#326,#11);
#11=ADVANCED_BREP_SHAPE_REPRESENTATION('',(#324),#545);
#12=CYLINDRICAL_SURFACE('',#337,0.0015);
#13=CYLINDRICAL_SURFACE('',#339,0.00155);
#14=CYLINDRICAL_SURFACE('',#346,0.00155);
#15=CYLINDRICAL_SURFACE('',#348,0.0015);
#16=CYLINDRICAL_SURFACE('',#355,0.0001);
#17=CYLINDRICAL_SURFACE('',#356,0.0001);
#18=CIRCLE('',#330,0.0015);
#19=CIRCLE('',#334,0.0001);
#20=CIRCLE('',#335,0.00155);
#21=CIRCLE('',#336,0.0015);
#22=CIRCLE('',#338,0.0015);
#23=CIRCLE('',#340,0.00155);
#24=CIRCLE('',#342,0.0001);
#25=CIRCLE('',#343,0.0015);
#26=CIRCLE('',#344,0.0001);
#27=CIRCLE('',#345,0.00155);
#28=CIRCLE('',#347,0.00155);
#29=CIRCLE('',#349,0.0015);
#30=CIRCLE('',#350,0.0015);
#31=CIRCLE('',#352,0.0001);
#32=ORIENTED_EDGE('',*,*,#120,.F.);
#33=ORIENTED_EDGE('',*,*,#121,.T.);
#34=ORIENTED_EDGE('',*,*,#122,.T.);
#35=ORIENTED_EDGE('',*,*,#123,.T.);
#36=ORIENTED_EDGE('',*,*,#124,.F.);
#37=ORIENTED_EDGE('',*,*,#125,.T.);
#38=ORIENTED_EDGE('',*,*,#126,.F.);
#39=ORIENTED_EDGE('',*,*,#127,.F.);
#40=ORIENTED_EDGE('',*,*,#128,.F.);
#41=ORIENTED_EDGE('',*,*,#129,.T.);
#42=ORIENTED_EDGE('',*,*,#130,.F.);
#43=ORIENTED_EDGE('',*,*,#131,.F.);
#44=ORIENTED_EDGE('',*,*,#124,.T.);
#45=ORIENTED_EDGE('',*,*,#132,.T.);
#46=ORIENTED_EDGE('',*,*,#133,.T.);
#47=ORIENTED_EDGE('',*,*,#134,.F.);
#48=ORIENTED_EDGE('',*,*,#135,.F.);
#49=ORIENTED_EDGE('',*,*,#136,.T.);
#50=ORIENTED_EDGE('',*,*,#122,.F.);
#51=ORIENTED_EDGE('',*,*,#137,.T.);
#52=ORIENTED_EDGE('',*,*,#138,.T.);
#53=ORIENTED_EDGE('',*,*,#139,.T.);
#54=ORIENTED_EDGE('',*,*,#140,.F.);
#55=ORIENTED_EDGE('',*,*,#141,.F.);
#56=ORIENTED_EDGE('',*,*,#142,.F.);
#57=ORIENTED_EDGE('',*,*,#140,.T.);
#58=ORIENTED_EDGE('',*,*,#143,.T.);
#59=ORIENTED_EDGE('',*,*,#144,.T.);
#60=ORIENTED_EDGE('',*,*,#126,.T.);
#61=ORIENTED_EDGE('',*,*,#145,.F.);
#62=ORIENTED_EDGE('',*,*,#125,.F.);
#63=ORIENTED_EDGE('',*,*,#133,.F.);
#64=ORIENTED_EDGE('',*,*,#146,.F.);
#65=ORIENTED_EDGE('',*,*,#141,.T.);
#66=ORIENTED_EDGE('',*,*,#145,.T.);
#67=ORIENTED_EDGE('',*,*,#144,.F.);
#68=ORIENTED_EDGE('',*,*,#147,.T.);
#69=ORIENTED_EDGE('',*,*,#148,.T.);
#70=ORIENTED_EDGE('',*,*,#127,.T.);
#71=ORIENTED_EDGE('',*,*,#148,.F.);
#72=ORIENTED_EDGE('',*,*,#149,.T.);
#73=ORIENTED_EDGE('',*,*,#138,.F.);
#74=ORIENTED_EDGE('',*,*,#150,.F.);
#75=ORIENTED_EDGE('',*,*,#151,.T.);
#76=ORIENTED_EDGE('',*,*,#152,.F.);
#77=ORIENTED_EDGE('',*,*,#128,.T.);
#78=ORIENTED_EDGE('',*,*,#152,.T.);
#79=ORIENTED_EDGE('',*,*,#153,.T.);
#80=ORIENTED_EDGE('',*,*,#154,.F.);
#81=ORIENTED_EDGE('',*,*,#129,.F.);
#82=ORIENTED_EDGE('',*,*,#155,.T.);
#83=ORIENTED_EDGE('',*,*,#156,.T.);
#84=ORIENTED_EDGE('',*,*,#150,.T.);
#85=ORIENTED_EDGE('',*,*,#137,.F.);
#86=ORIENTED_EDGE('',*,*,#157,.F.);
#87=ORIENTED_EDGE('',*,*,#131,.T.);
#88=ORIENTED_EDGE('',*,*,#154,.T.);
#89=ORIENTED_EDGE('',*,*,#158,.T.);
#90=ORIENTED_EDGE('',*,*,#155,.F.);
#91=ORIENTED_EDGE('',*,*,#130,.T.);
#92=ORIENTED_EDGE('',*,*,#159,.F.);
#93=ORIENTED_EDGE('',*,*,#160,.F.);
#94=ORIENTED_EDGE('',*,*,#161,.F.);
#95=ORIENTED_EDGE('',*,*,#135,.T.);
#96=ORIENTED_EDGE('',*,*,#160,.T.);
#97=ORIENTED_EDGE('',*,*,#162,.T.);
#98=ORIENTED_EDGE('',*,*,#120,.T.);
#99=ORIENTED_EDGE('',*,*,#157,.T.);
#100=ORIENTED_EDGE('',*,*,#142,.T.);
#101=ORIENTED_EDGE('',*,*,#146,.T.);
#102=ORIENTED_EDGE('',*,*,#163,.T.);
#103=ORIENTED_EDGE('',*,*,#151,.F.);
#104=ORIENTED_EDGE('',*,*,#156,.F.);
#105=ORIENTED_EDGE('',*,*,#158,.F.);
#106=ORIENTED_EDGE('',*,*,#153,.F.);
#107=ORIENTED_EDGE('',*,*,#149,.F.);
#108=ORIENTED_EDGE('',*,*,#147,.F.);
#109=ORIENTED_EDGE('',*,*,#143,.F.);
#110=ORIENTED_EDGE('',*,*,#139,.F.);
#111=ORIENTED_EDGE('',*,*,#161,.T.);
#112=ORIENTED_EDGE('',*,*,#163,.F.);
#113=ORIENTED_EDGE('',*,*,#132,.F.);
#114=ORIENTED_EDGE('',*,*,#123,.F.);
#115=ORIENTED_EDGE('',*,*,#136,.F.);
#116=ORIENTED_EDGE('',*,*,#159,.T.);
#117=ORIENTED_EDGE('',*,*,#134,.T.);
#118=ORIENTED_EDGE('',*,*,#121,.F.);
#119=ORIENTED_EDGE('',*,*,#162,.F.);
#120=EDGE_CURVE('',#164,#165,#193,.T.);
#121=EDGE_CURVE('',#164,#166,#194,.T.);
#122=EDGE_CURVE('',#166,#167,#195,.T.);
#123=EDGE_CURVE('',#167,#168,#196,.T.);
#124=EDGE_CURVE('',#169,#168,#197,.T.);
#125=EDGE_CURVE('',#169,#170,#198,.T.);
#126=EDGE_CURVE('',#171,#170,#199,.T.);
#127=EDGE_CURVE('',#172,#171,#200,.T.);
#128=EDGE_CURVE('',#173,#172,#201,.T.);
#129=EDGE_CURVE('',#173,#174,#202,.T.);
#130=EDGE_CURVE('',#175,#174,#203,.T.);
#131=EDGE_CURVE('',#165,#175,#204,.T.);
#132=EDGE_CURVE('',#168,#176,#205,.T.);
#133=EDGE_CURVE('',#176,#169,#18,.T.);
#134=EDGE_CURVE('',#177,#166,#206,.T.);
#135=EDGE_CURVE('',#178,#177,#207,.T.);
#136=EDGE_CURVE('',#178,#167,#208,.T.);
#137=EDGE_CURVE('',#179,#180,#209,.T.);
#138=EDGE_CURVE('',#180,#181,#210,.T.);
#139=EDGE_CURVE('',#181,#182,#211,.T.);
#140=EDGE_CURVE('',#183,#182,#212,.T.);
#141=EDGE_CURVE('',#184,#183,#213,.T.);
#142=EDGE_CURVE('',#179,#184,#214,.T.);
#143=EDGE_CURVE('',#182,#185,#19,.F.);
#144=EDGE_CURVE('',#185,#171,#20,.T.);
#145=EDGE_CURVE('',#183,#170,#21,.T.);
#146=EDGE_CURVE('',#184,#176,#22,.T.);
#147=EDGE_CURVE('',#185,#186,#215,.F.);
#148=EDGE_CURVE('',#186,#172,#23,.T.);
#149=EDGE_CURVE('',#186,#181,#24,.T.);
#150=EDGE_CURVE('',#187,#180,#25,.T.);
#151=EDGE_CURVE('',#187,#188,#26,.T.);
#152=EDGE_CURVE('',#173,#188,#27,.T.);
#153=EDGE_CURVE('',#188,#189,#216,.T.);
#154=EDGE_CURVE('',#174,#189,#28,.T.);
#155=EDGE_CURVE('',#175,#190,#29,.T.);
#156=EDGE_CURVE('',#190,#187,#217,.F.);
#157=EDGE_CURVE('',#165,#179,#30,.T.);
#158=EDGE_CURVE('',#189,#190,#31,.F.);
#159=EDGE_CURVE('',#191,#177,#218,.T.);
#160=EDGE_CURVE('',#192,#191,#219,.T.);
#161=EDGE_CURVE('',#178,#192,#220,.T.);
#162=EDGE_CURVE('',#191,#164,#221,.T.);
#163=EDGE_CURVE('',#176,#192,#222,.T.);
#164=VERTEX_POINT('',#456);
#165=VERTEX_POINT('',#457);
#166=VERTEX_POINT('',#459);
#167=VERTEX_POINT('',#461);
#168=VERTEX_POINT('',#463);
#169=VERTEX_POINT('',#465);
#170=VERTEX_POINT('',#467);
#171=VERTEX_POINT('',#469);
#172=VERTEX_POINT('',#471);
#173=VERTEX_POINT('',#473);
#174=VERTEX_POINT('',#475);
#175=VERTEX_POINT('',#477);
#176=VERTEX_POINT('',#481);
#177=VERTEX_POINT('',#485);
#178=VERTEX_POINT('',#487);
#179=VERTEX_POINT('',#491);
#180=VERTEX_POINT('',#492);
#181=VERTEX_POINT('',#494);
#182=VERTEX_POINT('',#496);
#183=VERTEX_POINT('',#498);
#184=VERTEX_POINT('',#500);
#185=VERTEX_POINT('',#504);
#186=VERTEX_POINT('',#511);
#187=VERTEX_POINT('',#516);
#188=VERTEX_POINT('',#518);
#189=VERTEX_POINT('',#522);
#190=VERTEX_POINT('',#526);
#191=VERTEX_POINT('',#533);
#192=VERTEX_POINT('',#535);
#193=LINE('',#455,#223);
#194=LINE('',#458,#224);
#195=LINE('',#460,#225);
#196=LINE('',#462,#226);
#197=LINE('',#464,#227);
#198=LINE('',#466,#228);
#199=LINE('',#468,#229);
#200=LINE('',#470,#230);
#201=LINE('',#472,#231);
#202=LINE('',#474,#232);
#203=LINE('',#476,#233);
#204=LINE('',#478,#234);
#205=LINE('',#480,#235);
#206=LINE('',#484,#236);
#207=LINE('',#486,#237);
#208=LINE('',#488,#238);
#209=LINE('',#490,#239);
#210=LINE('',#493,#240);
#211=LINE('',#495,#241);
#212=LINE('',#497,#242);
#213=LINE('',#499,#243);
#214=LINE('',#501,#244);
#215=LINE('',#510,#245);
#216=LINE('',#521,#246);
#217=LINE('',#527,#247);
#218=LINE('',#532,#248);
#219=LINE('',#534,#249);
#220=LINE('',#536,#250);
#221=LINE('',#538,#251);
#222=LINE('',#539,#252);
#223=VECTOR('',#363,1.);
#224=VECTOR('',#364,1.);
#225=VECTOR('',#365,1.);
#226=VECTOR('',#366,1.);
#227=VECTOR('',#367,1.);
#228=VECTOR('',#368,1.);
#229=VECTOR('',#369,1.);
#230=VECTOR('',#370,1.);
#231=VECTOR('',#371,1.);
#232=VECTOR('',#372,1.);
#233=VECTOR('',#373,1.);
#234=VECTOR('',#374,1.);
#235=VECTOR('',#377,1.);
#236=VECTOR('',#382,1.);
#237=VECTOR('',#383,1.);
#238=VECTOR('',#384,1.);
#239=VECTOR('',#387,1.);
#240=VECTOR('',#388,1.);
#241=VECTOR('',#389,1.);
#242=VECTOR('',#390,1.);
#243=VECTOR('',#391,1.);
#244=VECTOR('',#392,1.);
#245=VECTOR('',#407,1.);
#246=VECTOR('',#422,1.);
#247=VECTOR('',#429,1.);
#248=VECTOR('',#438,1.);
#249=VECTOR('',#439,1.);
#250=VECTOR('',#440,1.);
#251=VECTOR('',#443,1.);
#252=VECTOR('',#444,1.);
#253=EDGE_LOOP('',(#32,#33,#34,#35,#36,#37,#38,#39,#40,#41,#42,#43));
#254=EDGE_LOOP('',(#44,#45,#46));
#255=EDGE_LOOP('',(#47,#48,#49,#50));
#256=EDGE_LOOP('',(#51,#52,#53,#54,#55,#56));
#257=EDGE_LOOP('',(#57,#58,#59,#60,#61));
#258=EDGE_LOOP('',(#62,#63,#64,#65,#66));
#259=EDGE_LOOP('',(#67,#68,#69,#70));
#260=EDGE_LOOP('',(#71,#72,#73,#74,#75,#76,#77));
#261=EDGE_LOOP('',(#78,#79,#80,#81));
#262=EDGE_LOOP('',(#82,#83,#84,#85,#86,#87));
#263=EDGE_LOOP('',(#88,#89,#90,#91));
#264=EDGE_LOOP('',(#92,#93,#94,#95));
#265=EDGE_LOOP('',(#96,#97,#98,#99,#100,#101,#102));
#266=EDGE_LOOP('',(#103,#104,#105,#106));
#267=EDGE_LOOP('',(#107,#108,#109,#110));
#268=EDGE_LOOP('',(#111,#112,#113,#114,#115));
#269=EDGE_LOOP('',(#116,#117,#118,#119));
#270=FACE_BOUND('',#253,.T.);
#271=FACE_BOUND('',#254,.T.);
#272=FACE_BOUND('',#255,.T.);
#273=FACE_BOUND('',#256,.T.);
#274=FACE_BOUND('',#257,.T.);
#275=FACE_BOUND('',#258,.T.);
#276=FACE_BOUND('',#259,.T.);
#277=FACE_BOUND('',#260,.T.);
#278=FACE_BOUND('',#261,.T.);
#279=FACE_BOUND('',#262,.T.);
#280=FACE_BOUND('',#263,.T.);
#281=FACE_BOUND('',#264,.T.);
#282=FACE_BOUND('',#265,.T.);
#283=FACE_BOUND('',#266,.T.);
#284=FACE_BOUND('',#267,.T.);
#285=FACE_BOUND('',#268,.T.);
#286=FACE_BOUND('',#269,.T.);
#287=PLANE('',#328);
#288=PLANE('',#329);
#289=PLANE('',#331);
#290=PLANE('',#332);
#291=PLANE('',#333);
#292=PLANE('',#341);
#293=PLANE('',#351);
#294=PLANE('',#353);
#295=PLANE('',#354);
#296=PLANE('',#357);
#297=PLANE('',#358);
#298=ADVANCED_FACE('',(#270),#287,.T.);
#299=ADVANCED_FACE('',(#271),#288,.F.);
#300=ADVANCED_FACE('',(#272),#289,.T.);
#301=ADVANCED_FACE('',(#273),#290,.T.);
#302=ADVANCED_FACE('',(#274),#291,.F.);
#303=ADVANCED_FACE('',(#275),#12,.T.);
#304=ADVANCED_FACE('',(#276),#13,.F.);
#305=ADVANCED_FACE('',(#277),#292,.F.);
#306=ADVANCED_FACE('',(#278),#14,.F.);
#307=ADVANCED_FACE('',(#279),#15,.T.);
#308=ADVANCED_FACE('',(#280),#293,.F.);
#309=ADVANCED_FACE('',(#281),#294,.T.);
#310=ADVANCED_FACE('',(#282),#295,.F.);
#311=ADVANCED_FACE('',(#283),#16,.T.);
#312=ADVANCED_FACE('',(#284),#17,.T.);
#313=ADVANCED_FACE('',(#285),#296,.T.);
#314=ADVANCED_FACE('',(#286),#297,.F.);
#315=CLOSED_SHELL('',(#298,#299,#300,#301,#302,#303,#304,#305,#306,#307,
#308,#309,#310,#311,#312,#313,#314));
#316=STYLED_ITEM('',(#317),#324);
#317=PRESENTATION_STYLE_ASSIGNMENT((#318));
#318=SURFACE_STYLE_USAGE(.BOTH.,#319);
#319=SURFACE_SIDE_STYLE('',(#320));
#320=SURFACE_STYLE_FILL_AREA(#321);
#321=FILL_AREA_STYLE('',(#322));
#322=FILL_AREA_STYLE_COLOUR('',#323);
#323=COLOUR_RGB('',0.615686274509804,0.811764705882353,0.929411764705882);
#324=MANIFOLD_SOLID_BREP('Part 1',#315);
#325=SHAPE_DEFINITION_REPRESENTATION(#550,#326);
#326=SHAPE_REPRESENTATION('Part 1',(#327),#545);
#327=AXIS2_PLACEMENT_3D('',#453,#359,#360);
#328=AXIS2_PLACEMENT_3D('',#454,#361,#362);
#329=AXIS2_PLACEMENT_3D('',#479,#375,#376);
#330=AXIS2_PLACEMENT_3D('',#482,#378,#379);
#331=AXIS2_PLACEMENT_3D('',#483,#380,#381);
#332=AXIS2_PLACEMENT_3D('',#489,#385,#386);
#333=AXIS2_PLACEMENT_3D('',#502,#393,#394);
#334=AXIS2_PLACEMENT_3D('',#503,#395,#396);
#335=AXIS2_PLACEMENT_3D('',#505,#397,#398);
#336=AXIS2_PLACEMENT_3D('',#506,#399,#400);
#337=AXIS2_PLACEMENT_3D('',#507,#401,#402);
#338=AXIS2_PLACEMENT_3D('',#508,#403,#404);
#339=AXIS2_PLACEMENT_3D('',#509,#405,#406);
#340=AXIS2_PLACEMENT_3D('',#512,#408,#409);
#341=AXIS2_PLACEMENT_3D('',#513,#410,#411);
#342=AXIS2_PLACEMENT_3D('',#514,#412,#413);
#343=AXIS2_PLACEMENT_3D('',#515,#414,#415);
#344=AXIS2_PLACEMENT_3D('',#517,#416,#417);
#345=AXIS2_PLACEMENT_3D('',#519,#418,#419);
#346=AXIS2_PLACEMENT_3D('',#520,#420,#421);
#347=AXIS2_PLACEMENT_3D('',#523,#423,#424);
#348=AXIS2_PLACEMENT_3D('',#524,#425,#426);
#349=AXIS2_PLACEMENT_3D('',#525,#427,#428);
#350=AXIS2_PLACEMENT_3D('',#528,#430,#431);
#351=AXIS2_PLACEMENT_3D('',#529,#432,#433);
#352=AXIS2_PLACEMENT_3D('',#530,#434,#435);
#353=AXIS2_PLACEMENT_3D('',#531,#436,#437);
#354=AXIS2_PLACEMENT_3D('',#537,#441,#442);
#355=AXIS2_PLACEMENT_3D('',#540,#445,#446);
#356=AXIS2_PLACEMENT_3D('',#541,#447,#448);
#357=AXIS2_PLACEMENT_3D('',#542,#449,#450);
#358=AXIS2_PLACEMENT_3D('',#543,#451,#452);
#359=DIRECTION('',(0.,0.,1.));
#360=DIRECTION('',(1.,0.,0.));
#361=DIRECTION('',(0.,1.,0.));
#362=DIRECTION('',(0.,0.,1.));
#363=DIRECTION('',(1.,0.,-9.86076131525886E-32));
#364=DIRECTION('',(9.86076131525886E-32,0.,1.));
#365=DIRECTION('',(1.,0.,-9.86076131525886E-32));
#366=DIRECTION('',(-9.86076131525886E-32,0.,-1.));
#367=DIRECTION('',(1.,0.,-9.86076131525886E-32));
#368=DIRECTION('',(-9.86076131525886E-32,0.,-1.));
#369=DIRECTION('',(1.,0.,-9.86076131525886E-32));
#370=DIRECTION('',(-9.86076131525886E-32,0.,-1.));
#371=DIRECTION('',(1.,0.,-9.86076131525886E-32));
#372=DIRECTION('',(-9.86076131525886E-32,0.,-1.));
#373=DIRECTION('',(1.,0.,-9.86076131525886E-32));
#374=DIRECTION('',(-9.86076131525886E-32,0.,-1.));
#375=DIRECTION('',(9.86076131525886E-32,0.,1.));
#376=DIRECTION('',(1.,0.,-9.86076131525886E-32));
#377=DIRECTION('',(0.,-1.,0.));
#378=DIRECTION('',(9.86076131525886E-32,0.,1.));
#379=DIRECTION('',(1.,0.,-9.86076131525886E-32));
#380=DIRECTION('',(9.86076131525886E-32,0.,1.));
#381=DIRECTION('',(1.,0.,-9.86076131525886E-32));
#382=DIRECTION('',(-1.42813280880621E-16,1.,1.40824767541283E-47));
#383=DIRECTION('',(-1.,0.,9.86076131525886E-32));
#384=DIRECTION('',(0.,1.,0.));
#385=DIRECTION('',(-2.05585890251898E-16,-1.,2.02723339355897E-47));
#386=DIRECTION('',(1.,-2.05585890251898E-16,0.));
#387=DIRECTION('',(-9.86076131525886E-32,0.,-1.));
#388=DIRECTION('',(1.,0.,-9.86076131525886E-32));
#389=DIRECTION('',(-9.86076131525886E-32,2.43086534291451E-63,-1.));
#390=DIRECTION('',(-1.,2.05585890251898E-16,9.86076131525886E-32));
#391=DIRECTION('',(-9.86076131525886E-32,0.,-1.));
#392=DIRECTION('',(1.,0.,-9.86076131525886E-32));
#393=DIRECTION('',(9.86076131525886E-32,0.,1.));
#394=DIRECTION('',(1.,0.,-9.86076131525886E-32));
#395=DIRECTION('',(9.86076131525886E-32,0.,1.));
#396=DIRECTION('',(1.,0.,-9.86076131525886E-32));
#397=DIRECTION('',(9.86076131525886E-32,0.,1.));
#398=DIRECTION('',(1.,0.,-9.86076131525886E-32));
#399=DIRECTION('',(9.86076131525886E-32,0.,1.));
#400=DIRECTION('',(1.,0.,-9.86076131525886E-32));
#401=DIRECTION('',(-9.86076131525886E-32,0.,-1.));
#402=DIRECTION('',(-1.,0.,9.86076131525886E-32));
#403=DIRECTION('',(9.86076131525886E-32,0.,1.));
#404=DIRECTION('',(1.,0.,-9.86076131525886E-32));
#405=DIRECTION('',(-9.86076131525886E-32,0.,-1.));
#406=DIRECTION('',(-1.,0.,9.86076131525886E-32));
#407=DIRECTION('',(-9.86076131525886E-32,0.,-1.));
#408=DIRECTION('',(9.86076131525886E-32,0.,1.));
#409=DIRECTION('',(1.,0.,-9.86076131525886E-32));
#410=DIRECTION('',(9.86076131525886E-32,0.,1.));
#411=DIRECTION('',(1.,0.,-9.86076131525886E-32));
#412=DIRECTION('',(9.86076131525886E-32,0.,1.));
#413=DIRECTION('',(1.,0.,-9.86076131525886E-32));
#414=DIRECTION('',(9.86076131525886E-32,0.,1.));
#415=DIRECTION('',(1.,0.,-9.86076131525886E-32));
#416=DIRECTION('',(9.86076131525886E-32,0.,1.));
#417=DIRECTION('',(1.,0.,-9.86076131525886E-32));
#418=DIRECTION('',(9.86076131525886E-32,0.,1.));
#419=DIRECTION('',(1.,0.,-9.86076131525886E-32));
#420=DIRECTION('',(-9.86076131525886E-32,0.,-1.));
#421=DIRECTION('',(-1.,0.,9.86076131525886E-32));
#422=DIRECTION('',(-9.86076131525886E-32,0.,-1.));
#423=DIRECTION('',(9.86076131525886E-32,0.,1.));
#424=DIRECTION('',(1.,0.,-9.86076131525886E-32));
#425=DIRECTION('',(-9.86076131525886E-32,0.,-1.));
#426=DIRECTION('',(-1.,0.,9.86076131525886E-32));
#427=DIRECTION('',(9.86076131525886E-32,0.,1.));
#428=DIRECTION('',(1.,0.,-9.86076131525886E-32));
#429=DIRECTION('',(-9.86076131525886E-32,0.,-1.));
#430=DIRECTION('',(9.86076131525886E-32,0.,1.));
#431=DIRECTION('',(1.,0.,-9.86076131525886E-32));
#432=DIRECTION('',(9.86076131525886E-32,0.,1.));
#433=DIRECTION('',(1.,0.,-9.86076131525886E-32));
#434=DIRECTION('',(9.86076131525886E-32,0.,1.));
#435=DIRECTION('',(1.,0.,-9.86076131525886E-32));
#436=DIRECTION('',(0.,-1.,0.));
#437=DIRECTION('',(0.,0.,-1.));
#438=DIRECTION('',(9.86076131525886E-32,0.,1.));
#439=DIRECTION('',(-1.,0.,9.86076131525886E-32));
#440=DIRECTION('',(-9.86076131525886E-32,0.,-1.));
#441=DIRECTION('',(9.86076131525886E-32,0.,1.));
#442=DIRECTION('',(1.,0.,-9.86076131525886E-32));
#443=DIRECTION('',(-1.42813280880621E-16,1.,1.40824767541283E-47));
#444=DIRECTION('',(0.,-1.,0.));
#445=DIRECTION('',(9.86076131525886E-32,0.,1.));
#446=DIRECTION('',(1.,0.,-9.86076131525886E-32));
#447=DIRECTION('',(-9.86076131525886E-32,0.,-1.));
#448=DIRECTION('',(-1.,0.,9.86076131525886E-32));
#449=DIRECTION('',(1.,0.,-9.86076131525886E-32));
#450=DIRECTION('',(-9.86076131525886E-32,0.,-1.));
#451=DIRECTION('',(1.,1.42813280880621E-16,-9.86076131525886E-32));
#452=DIRECTION('',(-1.42813280880621E-16,1.,0.));
#453=CARTESIAN_POINT('',(0.,0.,0.));
#454=CARTESIAN_POINT('',(0.00163125,0.00147339690426579,0.005002));
#455=CARTESIAN_POINT('',(-0.000124999999999993,0.00147339690426579,0.006));
#456=CARTESIAN_POINT('',(-0.00265,0.00147339690426579,0.006));
#457=CARTESIAN_POINT('',(-0.00103125,0.00147339690426579,0.006));
#458=CARTESIAN_POINT('',(-0.00265,0.00147339690426579,-0.00785635817190724));
#459=CARTESIAN_POINT('',(-0.00265,0.00147339690426579,0.01));
#460=CARTESIAN_POINT('',(-0.000124999999999993,0.00147339690426579,0.01));
#461=CARTESIAN_POINT('',(0.004,0.00147339690426579,0.01));
#462=CARTESIAN_POINT('',(0.004,0.00147339690426579,0.0238563581719072));
#463=CARTESIAN_POINT('',(0.004,0.00147339690426579,0.006));
#464=CARTESIAN_POINT('',(-0.000124999999999993,0.00147339690426579,0.006));
#465=CARTESIAN_POINT('',(0.00278125,0.00147339690426579,0.006));
#466=CARTESIAN_POINT('',(0.00278125,0.00147339690426579,0.005002));
#467=CARTESIAN_POINT('',(0.00278125,0.00147339690426579,0.0025));
#468=CARTESIAN_POINT('',(0.00163125,0.00147339690426579,0.0025));
#469=CARTESIAN_POINT('',(0.000481250000000006,0.00147339690426579,0.0025));
#470=CARTESIAN_POINT('',(0.000481250000000006,0.00147339690426579,0.005002));
#471=CARTESIAN_POINT('',(0.000481250000000006,0.00147339690426579,0.005));
#472=CARTESIAN_POINT('',(-0.00075625,0.00147339690426579,0.005));
#473=CARTESIAN_POINT('',(-0.00048125,0.00147339690426579,0.005));
#474=CARTESIAN_POINT('',(-0.000481249999999992,0.00147339690426579,0.005002));
#475=CARTESIAN_POINT('',(-0.000481249999999992,0.00147339690426579,0.0025));
#476=CARTESIAN_POINT('',(-0.00075625,0.00147339690426579,0.0025));
#477=CARTESIAN_POINT('',(-0.00103125,0.00147339690426579,0.0025));
#478=CARTESIAN_POINT('',(-0.00103125,0.00147339690426579,0.005002));
#479=CARTESIAN_POINT('',(-0.000124999999999993,-0.0015633015478671,0.006));
#480=CARTESIAN_POINT('',(0.004,-0.0015633015478671,0.006));
#481=CARTESIAN_POINT('',(0.004,-6.50521303491303E-18,0.006));
#482=CARTESIAN_POINT('',(0.0025,2.49366499671666E-18,0.006));
#483=CARTESIAN_POINT('',(-0.000124999999999993,-0.0015633015478671,0.01));
#484=CARTESIAN_POINT('',(-0.00265,-0.0015633015478671,0.01));
#485=CARTESIAN_POINT('',(-0.00265,-0.0046,0.01));
#486=CARTESIAN_POINT('',(0.000875,-0.0046,0.01));
#487=CARTESIAN_POINT('',(0.004,-0.0046,0.01));
#488=CARTESIAN_POINT('',(0.004,-0.0015633015478671,0.01));
#489=CARTESIAN_POINT('',(0.00144525624189767,-0.0015,0.005002));
#490=CARTESIAN_POINT('',(-0.00075,-0.0015,0.005002));
#491=CARTESIAN_POINT('',(-0.00075,-0.0015,0.006));
#492=CARTESIAN_POINT('',(-0.00075,-0.0015,0.005));
#493=CARTESIAN_POINT('',(-0.00057025624189766,-0.0015,0.005));
#494=CARTESIAN_POINT('',(0.000873212459828657,-0.0015,0.005));
#495=CARTESIAN_POINT('',(0.000873212459828657,-0.0015,0.005002));
#496=CARTESIAN_POINT('',(0.000873212459828657,-0.0015,0.0025));
#497=CARTESIAN_POINT('',(0.00144525624189767,-0.0015,0.0025));
#498=CARTESIAN_POINT('',(0.0025,-0.0015,0.0025));
#499=CARTESIAN_POINT('',(0.0025,-0.0015,0.005002));
#500=CARTESIAN_POINT('',(0.0025,-0.0015,0.006));
#501=CARTESIAN_POINT('',(-0.00057025624189766,-0.0015,0.006));
#502=CARTESIAN_POINT('',(0.000875,-8.67361737988404E-19,0.0025));
#503=CARTESIAN_POINT('',(0.000873212459828657,-0.0014,0.0025));
#504=CARTESIAN_POINT('',(0.000820290492566315,-0.00131515151515151,0.0025));
#505=CARTESIAN_POINT('',(6.91178884959509E-18,-6.50521303491303E-19,0.0025));
#506=CARTESIAN_POINT('',(0.0025,-6.61363325216158E-18,0.0025));
#507=CARTESIAN_POINT('',(0.0025,-6.61363325216158E-18,0.005002));
#508=CARTESIAN_POINT('',(0.0025,2.49366499671666E-18,0.006));
#509=CARTESIAN_POINT('',(6.91178884959509E-18,-6.50521303491303E-19,0.005002));
#510=CARTESIAN_POINT('',(0.000820290492566315,-0.00131515151515151,0.005002));
#511=CARTESIAN_POINT('',(0.000820290492566315,-0.00131515151515151,0.005));
#512=CARTESIAN_POINT('',(6.91178884959509E-18,-6.50521303491303E-19,0.005));
#513=CARTESIAN_POINT('',(0.000875,-1.33015478671105E-5,0.005));
#514=CARTESIAN_POINT('',(0.000873212459828657,-0.0014,0.005));
#515=CARTESIAN_POINT('',(-0.00075,-2.16840434497101E-19,0.005));
#516=CARTESIAN_POINT('',(-0.000892857142857133,-0.00149318178288335,0.005));
#517=CARTESIAN_POINT('',(-0.000883333333333324,-0.00139363633069112,0.005));
#518=CARTESIAN_POINT('',(-0.00082979797979797,-0.00130917352277045,0.005));
#519=CARTESIAN_POINT('',(6.85757874097082E-18,1.51788304147971E-18,0.005));
#520=CARTESIAN_POINT('',(6.85757874097082E-18,1.51788304147971E-18,0.005002));
#521=CARTESIAN_POINT('',(-0.00082979797979797,-0.00130917352277045,0.005002));
#522=CARTESIAN_POINT('',(-0.00082979797979797,-0.00130917352277045,0.0025));
#523=CARTESIAN_POINT('',(6.85757874097082E-18,1.51788304147971E-18,0.0025));
#524=CARTESIAN_POINT('',(-0.00075,-2.16840434497101E-19,0.005002));
#525=CARTESIAN_POINT('',(-0.00075,-2.16840434497101E-19,0.0025));
#526=CARTESIAN_POINT('',(-0.000892857142857133,-0.00149318178288335,0.0025));
#527=CARTESIAN_POINT('',(-0.000892857142857133,-0.00149318178288335,0.005002));
#528=CARTESIAN_POINT('',(-0.00075,-2.16840434497101E-19,0.006));
#529=CARTESIAN_POINT('',(0.000875,-8.67361737988404E-19,0.0025));
#530=CARTESIAN_POINT('',(-0.000883333333333324,-0.00139363633069112,0.0025));
#531=CARTESIAN_POINT('',(0.000875,-0.0046,0.01));
#532=CARTESIAN_POINT('',(-0.00265,-0.0046,-0.00785635817190724));
#533=CARTESIAN_POINT('',(-0.00265,-0.0046,0.006));
#534=CARTESIAN_POINT('',(0.000875,-0.0046,0.006));
#535=CARTESIAN_POINT('',(0.004,-0.0046,0.006));
#536=CARTESIAN_POINT('',(0.004,-0.0046,0.0238563581719072));
#537=CARTESIAN_POINT('',(-0.000124999999999993,-0.0015633015478671,0.006));
#538=CARTESIAN_POINT('',(-0.00265,-0.00156330154786711,0.006));
#539=CARTESIAN_POINT('',(0.004,-0.0015633015478671,0.006));
#540=CARTESIAN_POINT('',(-0.000883333333333324,-0.00139363633069112,0.005002));
#541=CARTESIAN_POINT('',(0.000873212459828657,-0.0014,0.005002));
#542=CARTESIAN_POINT('',(0.004,-0.0015633015478671,0.0238563581719072));
#543=CARTESIAN_POINT('',(-0.00265,-0.0015633015478671,-0.00785635817190724));
#544=MECHANICAL_DESIGN_GEOMETRIC_PRESENTATION_REPRESENTATION('',(#316),
#545);
#545=(
GEOMETRIC_REPRESENTATION_CONTEXT(3)
GLOBAL_UNCERTAINTY_ASSIGNED_CONTEXT((#546))
GLOBAL_UNIT_ASSIGNED_CONTEXT((#549,#548,#547))
REPRESENTATION_CONTEXT('Part 1','TOP_LEVEL_ASSEMBLY_PART')
);
#546=UNCERTAINTY_MEASURE_WITH_UNIT(LENGTH_MEASURE(1.E-8),#549,
'DISTANCE_ACCURACY_VALUE','Maximum Tolerance applied to model');
#547=(
NAMED_UNIT(*)
SI_UNIT($,.STERADIAN.)
SOLID_ANGLE_UNIT()
);
#548=(
NAMED_UNIT(*)
PLANE_ANGLE_UNIT()
SI_UNIT($,.RADIAN.)
);
#549=(
LENGTH_UNIT()
NAMED_UNIT(*)
SI_UNIT($,.METRE.)
);
#550=PRODUCT_DEFINITION_SHAPE('','',#551);
#551=PRODUCT_DEFINITION('','',#553,#552);
#552=PRODUCT_DEFINITION_CONTEXT('',#559,'design');
#553=PRODUCT_DEFINITION_FORMATION_WITH_SPECIFIED_SOURCE('','',#555,
 .NOT_KNOWN.);
#554=PRODUCT_RELATED_PRODUCT_CATEGORY('','',(#555));
#555=PRODUCT('Part 1','Part 1','Part 1',(#557));
#556=PRODUCT_CATEGORY('','');
#557=PRODUCT_CONTEXT('',#559,'mechanical');
#558=APPLICATION_PROTOCOL_DEFINITION('international standard',
'ap242_managed_model_based_3d_engineering',2020,#559);
#559=APPLICATION_CONTEXT('managed model based 3d engineering');
ENDSEC;
END-ISO-10303-21;
